<svg width="1440" height="1024" viewBox="0 0 1440 1024" fill="none" xmlns="http://www.w3.org/2000/svg">
<rect width="1440" height="1024" fill="white"/>
<path fill-rule="evenodd" clip-rule="evenodd" d="M15.3533 -211.877C77.7706 -201.601 131.341 -167.246 179.447 -126.169C224.181 -87.9719 258.635 -41.1298 279.659 13.808C301.661 71.302 321.639 134.489 301.455 192.646C281.422 250.368 218.338 276.021 174.047 318.11C120.566 368.933 88.598 455.666 15.3533 464.524C-57.9597 473.391 -116.184 406.24 -173.916 360.193C-228.937 316.309 -303.131 275.365 -309.667 205.291C-316.198 135.264 -224.859 95.5617 -204.888 28.1253C-183.932 -42.635 -243.226 -133.168 -193.33 -187.541C-144.791 -240.435 -55.4823 -223.539 15.3533 -211.877Z" fill="#F2F6FF"/>
<path d="M-11 799C-20 676.833 111 395.5 421 329.5C808.5 247 743.5 506 1238.5 208.5C1634.5 -29.5 1548.5 49.3333 1443 36" stroke="black" stroke-dasharray="11 11"/>
</svg>
