<svg width="1440" height="1024" viewBox="0 0 1440 1024" fill="none" xmlns="http://www.w3.org/2000/svg">
<rect width="1440" height="1022" fill="white"/>
<path fill-rule="evenodd" clip-rule="evenodd" d="M15.3533 -211.877C77.7706 -201.601 131.341 -167.246 179.447 -126.169C224.181 -87.9719 258.635 -41.1298 279.659 13.808C301.661 71.302 321.639 134.489 301.455 192.646C281.422 250.368 218.338 276.021 174.047 318.11C120.566 368.933 88.598 455.666 15.3533 464.524C-57.9597 473.391 -116.184 406.24 -173.916 360.193C-228.937 316.309 -303.131 275.365 -309.667 205.291C-316.198 135.264 -224.859 95.5617 -204.888 28.1253C-183.932 -42.635 -243.226 -133.168 -193.33 -187.541C-144.791 -240.435 -55.4823 -223.539 15.3533 -211.877Z" fill="#F2F6FF"/>
<path d="M446 704C618.333 733.5 1411.3 862.1 1204.5 1208.5C997.7 1554.9 738 1648.67 585 1653.5C461.5 1700.67 91.9 1956 185.5 2084C302.5 2244 1211.5 2069.5 1180.5 2505C1149.5 2940.5 850.5 3316 420 3462C-10.5 3608 376.5 4026.5 496.5 4158C592.5 4263.2 593 4177.17 728.5 4158" stroke="black" stroke-dasharray="11 11"/>
</svg>
