<svg width="536" height="405" viewBox="0 0 536 405" fill="none" xmlns="http://www.w3.org/2000/svg">
<g clip-path="url(#clip0_29_379)">
<path d="M220.932 280.608C220.932 294.586 210.079 305.917 196.69 305.917C183.301 305.917 172.448 294.586 172.448 280.608C172.448 280.291 172.453 279.977 172.466 279.663C172.711 265.688 183.766 254.571 197.152 254.832C210.538 255.093 221.186 266.633 220.936 280.608H220.932Z" fill="#6C63FF"/>
<path d="M188.153 291.848L181.171 282.537L182.824 281.296L188.513 288.882L210.908 270.559L212.217 272.159L188.153 291.848Z" fill="white"/>
<path d="M536 403.548H0V405H536V403.548Z" fill="#E6E6E6"/>
<path d="M352.913 142.291C353.414 142.52 353.897 142.789 354.355 143.096L400.209 123.524L401.845 111.444L420.168 111.331L419.085 139.039L358.562 155.048C358.435 155.468 358.282 155.881 358.104 156.282C357.229 158.15 355.822 159.717 354.059 160.787C352.296 161.857 350.256 162.382 348.196 162.297C346.136 162.211 344.147 161.519 342.479 160.307C340.811 159.094 339.538 157.416 338.82 155.483C338.103 153.549 337.972 151.447 338.445 149.44C338.919 147.433 339.974 145.61 341.48 144.201C342.985 142.792 344.874 141.859 346.908 141.52C348.942 141.18 351.03 141.449 352.912 142.293L352.913 142.291Z" fill="#A0616A"/>
<path d="M426.831 393.361H414.297L408.334 345.012H426.832L426.831 393.361Z" fill="#A0616A"/>
<path d="M405.344 389.78H429.517V404.996H390.124C390.124 400.959 391.728 397.087 394.582 394.233C397.436 391.378 401.308 389.774 405.344 389.774V389.78Z" fill="#2F2E41"/>
<path d="M475.576 389.819L463.104 391.046L452.431 343.514L470.84 341.706L475.576 389.819Z" fill="#A0616A"/>
<path d="M453.835 388.364L477.887 385.994L479.378 401.139L440.184 405C439.789 400.984 441.004 396.975 443.564 393.855C446.124 390.735 449.818 388.76 453.834 388.364H453.835Z" fill="#2F2E41"/>
<path d="M430.32 60.1609C444.187 60.1609 455.429 48.9179 455.429 35.0489C455.429 21.18 444.187 9.93698 430.32 9.93698C416.452 9.93698 405.21 21.18 405.21 35.0489C405.21 48.9179 416.452 60.1609 430.32 60.1609Z" fill="#A0616A"/>
<path d="M411.496 383.583C410.418 383.585 409.375 383.206 408.549 382.514C407.723 381.822 407.168 380.861 406.982 379.799C400.499 343.79 379.289 226.024 378.781 222.759C378.77 222.684 378.764 222.609 378.764 222.533V213.751C378.764 213.431 378.863 213.119 379.05 212.859L381.851 208.938C381.984 208.749 382.159 208.594 382.361 208.483C382.564 208.372 382.79 208.309 383.021 208.299C398.994 207.551 451.297 205.355 453.824 208.513C456.362 211.682 455.46 221.301 455.255 223.195L455.265 223.393L478.765 373.69C478.949 374.889 478.654 376.112 477.943 377.094C477.232 378.077 476.162 378.74 474.966 378.94L460.289 381.358C459.196 381.533 458.076 381.311 457.133 380.73C456.19 380.15 455.487 379.251 455.151 378.196C450.612 363.689 435.391 314.888 430.115 296.004C430.086 295.88 430.012 295.77 429.907 295.698C429.802 295.626 429.673 295.596 429.547 295.614C429.42 295.633 429.305 295.698 429.225 295.797C429.144 295.896 429.104 296.022 429.112 296.149C429.376 314.15 430.013 360.076 430.237 375.938L430.26 377.647C430.27 378.803 429.845 379.921 429.071 380.78C428.296 381.639 427.227 382.176 426.076 382.284L411.923 383.567C411.781 383.579 411.638 383.584 411.496 383.583Z" fill="#2F2E41"/>
<path d="M414.384 70.0356C410.002 72.641 407.379 77.4277 405.875 82.3073C403.089 91.3263 401.413 100.651 400.882 110.076L399.291 138.293L379.605 213.105C396.668 227.543 406.508 224.261 429.476 212.452C452.444 200.643 455.067 216.389 455.067 216.389L459.659 152.734L466.221 83.1751C464.748 81.4014 463.081 79.7985 461.25 78.3964C455.185 73.6789 448.129 70.3995 440.613 68.8055C433.097 67.2115 425.317 67.3443 417.86 69.1941L414.384 70.0356Z" fill="#6C63FF"/>
<path d="M407.99 157.4C408.519 157.598 409.032 157.837 409.524 158.116L454.865 135.418L455.617 123.122L474.32 121.832L475.322 149.861L414.731 169.903C414.237 172.026 413.107 173.949 411.494 175.415C409.88 176.88 407.858 177.82 405.698 178.109C403.537 178.398 401.339 178.021 399.398 177.031C397.456 176.04 395.862 174.481 394.827 172.562C393.793 170.643 393.367 168.454 393.607 166.287C393.847 164.12 394.741 162.077 396.17 160.431C397.599 158.785 399.496 157.612 401.607 157.07C403.719 156.528 405.946 156.642 407.991 157.396L407.99 157.4Z" fill="#A0616A"/>
<path d="M465.894 83.488C477.049 87.4251 479.015 130.085 479.015 130.085C465.891 122.866 450.143 134.678 450.143 134.678C450.143 134.678 446.863 123.521 442.925 109.085C441.736 105.024 441.594 100.728 442.512 96.5976C443.429 92.4669 445.377 88.6356 448.174 85.4602C448.174 85.4602 454.738 79.5488 465.894 83.488Z" fill="#6C63FF"/>
<path d="M452.83 41.688C449.701 39.185 445.434 43.7328 445.434 43.7328L442.931 21.211C442.931 21.211 427.289 23.0851 417.276 20.585C407.263 18.085 405.7 29.6617 405.7 29.6617C405.184 24.9864 405.079 20.2749 405.387 15.5812C406.013 9.94933 414.146 4.31742 428.538 0.562572C442.929 -3.19228 450.438 13.0782 450.438 13.0782C460.455 18.0806 455.962 44.1939 452.83 41.688Z" fill="#2F2E41"/>
<path d="M116.991 33.0768C116.394 33.0778 115.821 33.316 115.399 33.739C114.977 34.162 114.74 34.7353 114.74 35.333C114.74 35.9306 114.977 36.5039 115.399 36.9269C115.821 37.3499 116.394 37.5881 116.991 37.5892H281.707C282.305 37.5881 282.877 37.3499 283.3 36.9269C283.722 36.5039 283.959 35.9306 283.959 35.333C283.959 34.7353 283.722 34.162 283.3 33.739C282.877 33.316 282.305 33.0778 281.707 33.0768H116.991Z" fill="#CCCCCC"/>
<path d="M116.991 46.614C116.394 46.6136 115.82 46.8505 115.397 47.2726C114.974 47.6948 114.735 48.2677 114.734 48.8655C114.733 49.4634 114.969 50.0372 115.39 50.4612C115.812 50.8851 116.384 51.1244 116.982 51.1265H221.117C221.413 51.1265 221.706 51.0681 221.98 50.9547C222.254 50.8413 222.503 50.6751 222.712 50.4656C222.922 50.2561 223.088 50.0074 223.201 49.7337C223.314 49.4599 223.373 49.1665 223.373 48.8703C223.373 48.574 223.314 48.2806 223.201 48.0068C223.088 47.7331 222.922 47.4844 222.712 47.2749C222.503 47.0654 222.254 46.8992 221.98 46.7858C221.706 46.6724 221.413 46.614 221.117 46.614H116.991Z" fill="#CCCCCC"/>
<path d="M279.642 15.8292C279.642 21.3001 275.394 25.7352 270.154 25.7352C264.914 25.7352 260.666 21.3002 260.666 15.8292C260.666 15.7052 260.668 15.5821 260.673 15.4591C260.769 9.98926 265.095 5.63801 270.335 5.74017C275.574 5.84232 279.742 10.3594 279.644 15.8292H279.642Z" fill="#6C63FF"/>
<path d="M266.813 20.2286L264.08 16.5844L264.727 16.0986L266.953 19.0674L275.719 11.8958L276.232 12.5222L266.813 20.2286Z" fill="white"/>
<path d="M116.991 115.856C116.394 115.857 115.821 116.096 115.399 116.519C114.977 116.942 114.74 117.515 114.74 118.112C114.74 118.71 114.977 119.283 115.399 119.706C115.821 120.129 116.394 120.368 116.991 120.369H281.707C282.305 120.368 282.877 120.129 283.3 119.706C283.722 119.283 283.959 118.71 283.959 118.112C283.959 117.515 283.722 116.942 283.3 116.519C282.877 116.096 282.305 115.857 281.707 115.856H116.991Z" fill="#CCCCCC"/>
<path d="M116.991 129.394C116.394 129.393 115.82 129.63 115.397 130.052C114.974 130.474 114.735 131.047 114.734 131.645C114.733 132.243 114.969 132.817 115.39 133.241C115.812 133.665 116.384 133.904 116.982 133.906H221.117C221.715 133.906 222.289 133.668 222.712 133.245C223.135 132.822 223.373 132.248 223.373 131.65C223.373 131.051 223.135 130.478 222.712 130.054C222.289 129.631 221.715 129.394 221.117 129.394H116.991Z" fill="#CCCCCC"/>
<path d="M278.916 98.6087C278.916 104.08 274.668 108.515 269.428 108.515C264.188 108.515 259.94 104.08 259.94 98.6087C259.94 98.4847 259.941 98.3616 259.947 98.2386C260.043 92.7687 264.369 88.4175 269.609 88.5196C274.848 88.6218 279.016 93.1389 278.918 98.6087H278.916Z" fill="#6C63FF"/>
<path d="M266.087 103.008L263.354 99.3639L264.001 98.8781L266.227 101.847L274.993 94.6754L275.505 95.3018L266.087 103.008Z" fill="white"/>
<path d="M116.991 198.636C116.394 198.637 115.821 198.875 115.399 199.298C114.977 199.721 114.74 200.294 114.74 200.892C114.74 201.49 114.977 202.063 115.399 202.486C115.821 202.909 116.394 203.147 116.991 203.148H281.707C282.305 203.147 282.877 202.909 283.3 202.486C283.722 202.063 283.959 201.49 283.959 200.892C283.959 200.294 283.722 199.721 283.3 199.298C282.877 198.875 282.305 198.637 281.707 198.636H116.991Z" fill="#CCCCCC"/>
<path d="M116.991 212.173C116.394 212.173 115.82 212.409 115.397 212.832C114.974 213.254 114.735 213.827 114.734 214.425C114.733 215.022 114.969 215.596 115.39 216.02C115.812 216.444 116.384 216.683 116.982 216.685H221.117C221.715 216.685 222.289 216.448 222.712 216.025C223.135 215.602 223.373 215.028 223.373 214.429C223.373 213.831 223.135 213.257 222.712 212.834C222.289 212.411 221.715 212.173 221.117 212.173H116.991Z" fill="#CCCCCC"/>
<path d="M278.916 181.388C278.916 186.859 274.668 191.294 269.428 191.294C264.188 191.294 259.94 186.859 259.94 181.388C259.94 181.264 259.941 181.141 259.947 181.018C260.043 175.548 264.369 171.197 269.609 171.299C274.848 171.401 279.016 175.918 278.918 181.388H278.916Z" fill="#6C63FF"/>
<path d="M266.087 185.788L263.354 182.143L264.001 181.658L266.227 184.627L274.993 177.455L275.505 178.081L266.087 185.788Z" fill="white"/>
</g>
<defs>
<clipPath id="clip0_29_379">
<rect width="536" height="405" rx="12.69" fill="white"/>
</clipPath>
</defs>
</svg>
