<svg width="685" height="600" viewBox="0 0 685 600" fill="none" xmlns="http://www.w3.org/2000/svg">
<g clip-path="url(#clip0_29_213)">
<path d="M132.82 450.454C150.427 450.454 164.7 436.19 164.7 418.594C164.7 400.999 150.427 386.735 132.82 386.735C115.214 386.735 100.941 400.999 100.941 418.594C100.941 436.19 115.214 450.454 132.82 450.454Z" fill="#6250FE" fill-opacity="0.3"/>
<path d="M138.004 445.792C155.61 445.792 169.883 431.528 169.883 413.932C169.883 396.336 155.61 382.072 138.004 382.072C120.397 382.072 106.124 396.336 106.124 413.932C106.124 431.528 120.397 445.792 138.004 445.792Z" fill="white"/>
<path d="M558.113 378.68H163.678V379.755H558.113V378.68Z" fill="#3F3D56"/>
<path d="M367.956 148.031H227.956V145.147H164.475V148.031H23.8976C22.6539 148.031 21.4225 148.276 20.2736 148.751C19.1246 149.227 18.0807 149.924 17.2013 150.803C16.3219 151.682 15.6244 152.725 15.1485 153.873C14.6726 155.021 14.4276 156.252 14.4276 157.495V349.08C14.4276 351.59 15.4253 353.997 17.2013 355.772C18.9772 357.547 21.386 358.544 23.8976 358.544H367.956C370.468 358.544 372.876 357.547 374.652 355.772C376.428 353.997 377.426 351.59 377.426 349.08V157.495C377.426 156.252 377.181 155.021 376.705 153.873C376.229 152.725 375.532 151.682 374.652 150.803C373.773 149.924 372.729 149.227 371.58 148.751C370.431 148.276 369.2 148.031 367.956 148.031Z" fill="#3F3D56"/>
<path d="M364.606 165H27V355.327H364.606V165Z" fill="white"/>
<path d="M195.638 159.566C197.551 159.566 199.101 158.016 199.101 156.105C199.101 154.194 197.551 152.645 195.638 152.645C193.726 152.645 192.176 154.194 192.176 156.105C192.176 158.016 193.726 159.566 195.638 159.566Z" fill="white"/>
<path opacity="0.1" d="M268.056 362.327H27V172L268.056 362.327Z" fill="#6250FE"/>
<path d="M79.9491 340.841C97.8717 340.841 112.401 326.321 112.401 308.41C112.401 290.498 97.8717 275.978 79.9491 275.978C62.0265 275.978 47.4974 290.498 47.4974 308.41C47.4974 326.321 62.0265 340.841 79.9491 340.841Z" fill="#F2F2F2"/>
<path d="M305.947 267.401H274.411V273.987H305.947V267.401Z" fill="#3F3D56"/>
<path d="M344.073 216.128H236.285V218.95H344.073V216.128Z" fill="#3F3D56"/>
<path d="M344.073 225.066H236.285V227.888H344.073V225.066Z" fill="#3F3D56"/>
<path d="M344.073 234.003H236.285V236.826H344.073V234.003Z" fill="#3F3D56"/>
<path d="M344.073 242.941H236.285V245.763H344.073V242.941Z" fill="#3F3D56"/>
<path d="M344.073 251.878H236.285V254.701H344.073V251.878Z" fill="#3F3D56"/>
<path d="M344.073 168.618H330.894V181.789H344.073V168.618Z" fill="#F2F2F2"/>
<path d="M350.192 187.904H334.188V171.911H350.192V187.904ZM334.884 187.209H349.496V172.606H334.884V187.209Z" fill="#3F3D56"/>
<path d="M386.905 351.623H353.957V349.251C353.957 349.189 353.945 349.128 353.921 349.071C353.898 349.014 353.863 348.962 353.819 348.918C353.776 348.874 353.724 348.84 353.667 348.816C353.61 348.793 353.548 348.78 353.487 348.78H342.19C342.128 348.78 342.067 348.793 342.01 348.816C341.953 348.84 341.901 348.874 341.857 348.918C341.814 348.962 341.779 349.014 341.755 349.071C341.732 349.128 341.719 349.189 341.719 349.251V351.623H334.659V349.251C334.659 349.189 334.647 349.128 334.623 349.071C334.6 349.014 334.565 348.962 334.521 348.918C334.477 348.874 334.426 348.84 334.368 348.816C334.311 348.793 334.25 348.78 334.188 348.78H322.892C322.83 348.78 322.769 348.793 322.712 348.816C322.655 348.84 322.603 348.874 322.559 348.918C322.515 348.962 322.481 349.014 322.457 349.071C322.433 349.128 322.421 349.189 322.421 349.251V351.623H315.361V349.251C315.361 349.189 315.349 349.128 315.325 349.071C315.301 349.014 315.267 348.962 315.223 348.918C315.179 348.874 315.127 348.84 315.07 348.816C315.013 348.793 314.952 348.78 314.89 348.78H303.594C303.532 348.78 303.471 348.793 303.414 348.816C303.356 348.84 303.305 348.874 303.261 348.918C303.217 348.962 303.182 349.014 303.159 349.071C303.135 349.128 303.123 349.189 303.123 349.251V351.623H296.063V349.251C296.063 349.189 296.05 349.128 296.027 349.071C296.003 349.014 295.968 348.962 295.925 348.918C295.881 348.874 295.829 348.84 295.772 348.816C295.715 348.793 295.654 348.78 295.592 348.78H284.295C284.234 348.78 284.172 348.793 284.115 348.816C284.058 348.84 284.006 348.874 283.963 348.918C283.919 348.962 283.884 349.014 283.861 349.071C283.837 349.128 283.825 349.189 283.825 349.251V351.623H276.764V349.251C276.764 349.189 276.752 349.128 276.729 349.071C276.705 349.014 276.67 348.962 276.627 348.918C276.583 348.874 276.531 348.84 276.474 348.816C276.417 348.793 276.356 348.78 276.294 348.78H264.997C264.935 348.78 264.874 348.793 264.817 348.816C264.76 348.84 264.708 348.874 264.664 348.918C264.621 348.962 264.586 349.014 264.562 349.071C264.539 349.128 264.527 349.189 264.527 349.251V351.623H257.466V349.251C257.466 349.189 257.454 349.128 257.43 349.071C257.407 349.014 257.372 348.962 257.328 348.918C257.285 348.874 257.233 348.84 257.176 348.816C257.119 348.793 257.057 348.78 256.996 348.78H245.699C245.637 348.78 245.576 348.793 245.519 348.816C245.462 348.84 245.41 348.874 245.366 348.918C245.323 348.962 245.288 349.014 245.264 349.071C245.241 349.128 245.228 349.189 245.228 349.251V351.623H238.168V349.251C238.168 349.189 238.156 349.128 238.132 349.071C238.109 349.014 238.074 348.962 238.03 348.918C237.986 348.874 237.935 348.84 237.877 348.816C237.82 348.793 237.759 348.78 237.697 348.78H149.208C149.146 348.78 149.085 348.793 149.028 348.816C148.971 348.84 148.919 348.874 148.875 348.918C148.831 348.962 148.797 349.014 148.773 349.071C148.75 349.128 148.737 349.189 148.737 349.251V351.623H141.677V349.251C141.677 349.189 141.665 349.128 141.641 349.071C141.618 349.014 141.583 348.962 141.539 348.918C141.495 348.874 141.444 348.84 141.386 348.816C141.329 348.793 141.268 348.78 141.206 348.78H129.91C129.848 348.78 129.787 348.793 129.73 348.816C129.673 348.84 129.621 348.874 129.577 348.918C129.533 348.962 129.499 349.014 129.475 349.071C129.451 349.128 129.439 349.189 129.439 349.251V351.623H122.379V349.251C122.379 349.189 122.367 349.128 122.343 349.071C122.319 349.014 122.285 348.962 122.241 348.918C122.197 348.874 122.145 348.84 122.088 348.816C122.031 348.793 121.97 348.78 121.908 348.78H110.612C110.55 348.78 110.489 348.793 110.432 348.816C110.374 348.84 110.323 348.874 110.279 348.918C110.235 348.962 110.2 349.014 110.177 349.071C110.153 349.128 110.141 349.189 110.141 349.251V351.623H103.081V349.251C103.081 349.189 103.068 349.128 103.045 349.071C103.021 349.014 102.986 348.962 102.943 348.918C102.899 348.874 102.847 348.84 102.79 348.816C102.733 348.793 102.672 348.78 102.61 348.78H91.3134C91.2516 348.78 91.1904 348.793 91.1333 348.816C91.0762 348.84 91.0243 348.874 90.9806 348.918C90.9369 348.962 90.9022 349.014 90.8786 349.071C90.8549 349.128 90.8427 349.189 90.8428 349.251V351.623H83.7824V349.251C83.7825 349.189 83.7703 349.128 83.7466 349.071C83.723 349.014 83.6883 348.962 83.6446 348.918C83.6009 348.874 83.549 348.84 83.4919 348.816C83.4348 348.793 83.3736 348.78 83.3118 348.78H72.0152C71.9534 348.78 71.8922 348.793 71.8351 348.816C71.778 348.84 71.7261 348.874 71.6824 348.918C71.6387 348.962 71.604 349.014 71.5804 349.071C71.5567 349.128 71.5445 349.189 71.5445 349.251V351.623H64.4842V349.251C64.4842 349.189 64.4721 349.128 64.4484 349.071C64.4248 349.014 64.3901 348.962 64.3464 348.918C64.3027 348.874 64.2508 348.84 64.1937 348.816C64.1366 348.793 64.0754 348.78 64.0135 348.78H52.717C52.6552 348.78 52.594 348.793 52.5369 348.816C52.4798 348.84 52.4279 348.874 52.3842 348.918C52.3405 348.962 52.3058 349.014 52.2822 349.071C52.2585 349.128 52.2463 349.189 52.2463 349.251V351.623H45.186V349.251C45.186 349.189 45.1739 349.128 45.1502 349.071C45.1266 349.014 45.0919 348.962 45.0482 348.918C45.0045 348.874 44.9526 348.84 44.8955 348.816C44.8384 348.793 44.7772 348.78 44.7153 348.78H33.4188C33.357 348.78 33.2958 348.793 33.2387 348.816C33.1816 348.84 33.1297 348.874 33.086 348.918C33.0423 348.962 33.0076 349.014 32.984 349.071C32.9603 349.128 32.9482 349.189 32.9482 349.251V351.623H11.2965C8.30049 351.623 5.42718 352.813 3.30867 354.93C1.19017 357.047 2.85431e-06 359.919 0 362.913V368.018C8.56293e-06 371.012 1.19018 373.883 3.30868 376.001C5.42719 378.118 8.30049 379.307 11.2965 379.307H386.905C389.901 379.307 392.775 378.118 394.893 376.001C397.012 373.883 398.202 371.012 398.202 368.018V362.913C398.202 359.919 397.012 357.047 394.893 354.93C392.775 352.813 389.901 351.623 386.905 351.623Z" fill="#3F3D56"/>
<path d="M87.8043 328.666C79.7157 328.666 71.8088 326.269 65.0834 321.778C58.358 317.287 53.1162 310.904 50.0209 303.436C46.9255 295.967 46.1157 287.75 47.6937 279.821C49.2717 271.893 53.1667 264.61 58.8861 258.895C64.6056 253.179 71.8926 249.286 79.8258 247.709C87.7589 246.132 95.9818 246.941 103.455 250.035C110.927 253.128 117.315 258.367 121.808 265.088C126.302 271.809 128.701 279.711 128.701 287.795C128.688 298.631 124.376 309.019 116.709 316.682C109.042 324.344 98.6469 328.654 87.8043 328.666ZM87.8043 247.999C79.9286 247.999 72.2297 250.333 65.6813 254.706C59.1329 259.079 54.0291 265.294 51.0152 272.566C48.0013 279.837 47.2127 287.839 48.7492 295.559C50.2857 303.278 54.0782 310.369 59.6471 315.935C65.2161 321.5 72.3114 325.29 80.0357 326.826C87.7601 328.361 95.7666 327.573 103.043 324.561C110.319 321.549 116.538 316.449 120.914 309.904C125.289 303.36 127.624 295.666 127.624 287.795C127.613 277.244 123.413 267.129 115.948 259.668C108.483 252.208 98.3616 248.011 87.8043 247.999Z" fill="#3F3D56"/>
<path d="M452.643 155.501H315.425V156.577H452.643V155.501Z" fill="#3F3D56"/>
<path d="M613 439.449H218.565V440.524H613V439.449Z" fill="#3F3D56"/>
<path d="M240.897 488.924H103.679V490H240.897V488.924Z" fill="#3F3D56"/>
<path d="M268.517 433.779H253.45V448.837H268.517V433.779Z" fill="white"/>
<path d="M277.665 440.232H259.369V421.948H277.665V440.232ZM260.165 439.437H276.87V422.743H260.165V439.437Z" fill="#3F3D56"/>
<path d="M443.403 149.831H428.336V164.889H443.403V149.831Z" fill="white"/>
<path d="M452.551 156.285H434.255V138H452.551V156.285ZM435.051 155.49H451.756V138.795H435.051V155.49Z" fill="#3F3D56"/>
<path d="M595.15 433.779H580.083V448.837H595.15V433.779Z" fill="white"/>
<path d="M604.298 440.232H586.003V421.948H604.298V440.232ZM586.798 439.437H603.503V422.743H586.798V439.437Z" fill="#3F3D56"/>
<path d="M568.875 262.742H567.595V227.7C567.595 225.036 567.07 222.399 566.051 219.938C565.031 217.478 563.536 215.242 561.651 213.358C559.767 211.475 557.53 209.981 555.067 208.962C552.605 207.943 549.966 207.418 547.301 207.418H473.013C470.348 207.418 467.709 207.943 465.247 208.962C462.784 209.981 460.547 211.475 458.663 213.358C456.778 215.242 455.283 217.478 454.264 219.938C453.244 222.399 452.719 225.036 452.719 227.7V419.946C452.719 422.609 453.244 425.247 454.264 427.707C455.283 430.168 456.778 432.404 458.663 434.287C460.547 436.171 462.784 437.665 465.247 438.684C467.709 439.703 470.348 440.228 473.013 440.228H547.301C549.966 440.228 552.605 439.703 555.067 438.684C557.53 437.665 559.767 436.171 561.651 434.287C563.536 432.404 565.031 430.168 566.051 427.707C567.07 425.247 567.595 422.609 567.595 419.946V287.686H568.875V262.742Z" fill="#3F3D56"/>
<path d="M563.274 228.892V420.858C563.274 424.875 561.678 428.728 558.836 431.569C555.994 434.41 552.14 436.006 548.12 436.007H473.474C469.454 436.006 465.599 434.41 462.758 431.569C459.916 428.728 458.32 424.875 458.32 420.858V228.892C458.321 224.876 459.918 221.024 462.759 218.184C465.601 215.344 469.455 213.748 473.474 213.748H482.53C482.084 214.841 481.914 216.026 482.035 217.2C482.156 218.373 482.563 219.499 483.222 220.479C483.881 221.458 484.77 222.26 485.812 222.815C486.854 223.369 488.017 223.659 489.197 223.659H531.756C532.937 223.659 534.099 223.369 535.141 222.815C536.183 222.26 537.073 221.458 537.732 220.479C538.39 219.499 538.798 218.373 538.919 217.2C539.039 216.026 538.869 214.841 538.424 213.748H548.12C552.139 213.748 555.993 215.344 558.835 218.184C561.676 221.024 563.273 224.876 563.274 228.892Z" fill="white"/>
<path d="M521.915 340.322H499.679V346.908H521.915V340.322Z" fill="#3F3D56"/>
<path d="M548.798 289.049H472.796V291.871H548.798V289.049Z" fill="#3F3D56"/>
<path d="M548.798 297.986H472.796V300.809H548.798V297.986Z" fill="#3F3D56"/>
<path d="M548.798 306.924H472.796V309.746H548.798V306.924Z" fill="#3F3D56"/>
<path d="M548.798 315.862H472.796V318.684H548.798V315.862Z" fill="#3F3D56"/>
<path d="M548.798 324.799H472.796V327.621H548.798V324.799Z" fill="#3F3D56"/>
<path d="M513.452 251.568H500.273V264.739H513.452V251.568Z" fill="#F2F2F2"/>
<path d="M505.318 254.861V270.855H521.321V254.861H505.318ZM520.627 270.161H506.012V255.555H520.627V270.161Z" fill="#3F3D56"/>
<path opacity="0.1" d="M563.274 400.358V420.858C563.274 424.875 561.678 428.728 558.836 431.569C555.994 434.41 552.14 436.006 548.12 436.007H473.474C469.454 436.006 465.599 434.41 462.758 431.569C459.916 428.728 458.32 424.875 458.32 420.858V317.491L521.209 367.144L522.286 367.994L533.984 377.228L535.077 378.094L563.274 400.358Z" fill="#6250FE"/>
<path d="M504.34 429.786C517.377 429.786 527.945 419.223 527.945 406.194C527.945 393.165 517.377 382.603 504.34 382.603C491.303 382.603 480.734 393.165 480.734 406.194C480.734 419.223 491.303 429.786 504.34 429.786Z" fill="#F2F2F2"/>
<path d="M172.288 490C163.028 490 153.977 487.256 146.278 482.115C138.579 476.974 132.579 469.667 129.036 461.118C125.492 452.569 124.565 443.161 126.372 434.086C128.178 425.01 132.637 416.673 139.184 410.13C145.731 403.587 154.073 399.131 163.154 397.325C172.236 395.52 181.649 396.447 190.203 399.988C198.758 403.529 206.069 409.526 211.213 417.22C216.358 424.914 219.103 433.96 219.103 443.213C219.089 455.618 214.152 467.51 205.376 476.281C196.599 485.052 184.7 489.986 172.288 490ZM172.288 397.502C163.241 397.502 154.398 400.183 146.876 405.206C139.354 410.229 133.492 417.368 130.03 425.72C126.568 434.073 125.662 443.264 127.427 452.131C129.192 460.998 133.548 469.143 139.945 475.536C146.342 481.929 154.492 486.282 163.364 488.046C172.237 489.81 181.434 488.905 189.791 485.445C198.149 481.985 205.293 476.126 210.319 468.609C215.344 461.092 218.027 452.254 218.027 443.213C218.013 431.094 213.19 419.475 204.615 410.906C196.04 402.336 184.414 397.516 172.288 397.502Z" fill="#3F3D56"/>
<path d="M511.297 424.391C505.444 424.391 499.722 422.656 494.855 419.406C489.988 416.156 486.194 411.537 483.954 406.132C481.714 400.727 481.128 394.78 482.27 389.043C483.412 383.305 486.231 378.035 490.37 373.898C494.509 369.762 499.782 366.945 505.523 365.803C511.265 364.662 517.215 365.248 522.623 367.487C528.031 369.725 532.654 373.516 535.906 378.38C539.158 383.244 540.893 388.963 540.893 394.813C540.885 402.655 537.764 410.173 532.215 415.718C526.667 421.263 519.144 424.382 511.297 424.391ZM511.297 366.311C505.657 366.311 500.143 367.982 495.453 371.114C490.763 374.246 487.107 378.697 484.948 383.906C482.79 389.114 482.225 394.845 483.326 400.373C484.426 405.902 487.142 410.981 491.131 414.967C495.119 418.953 500.201 421.668 505.733 422.768C511.266 423.867 517 423.303 522.211 421.146C527.423 418.988 531.877 415.335 535.011 410.648C538.145 405.961 539.817 400.45 539.817 394.813C539.809 387.256 536.801 380.012 531.455 374.668C526.108 369.325 518.859 366.319 511.297 366.311Z" fill="#3F3D56"/>
</g>
<g filter="url(#filter0_d_29_213)">
<rect x="468" y="16.3745" width="63.4484" height="63.4484" rx="10.1517" transform="rotate(-8.49656 468 16.3745)" fill="white"/>
<path d="M491.52 32.9085C491.78 32.8696 492.045 32.9357 492.256 33.0921C492.468 33.2485 492.608 33.4824 492.647 33.7425L495.576 53.3525C495.615 53.6125 495.756 53.8465 495.967 54.0029C496.179 54.1593 496.443 54.2254 496.703 54.1865L516.313 51.257C516.574 51.2181 516.838 51.2842 517.05 51.4406C517.261 51.597 517.402 51.831 517.44 52.091C517.479 52.351 517.413 52.6159 517.257 52.8272C517.1 53.0386 516.866 53.1791 516.606 53.218L496.996 56.1475C496.216 56.264 495.422 56.0659 494.788 55.5967C494.154 55.1275 493.732 54.4256 493.615 53.6454L490.686 34.0354C490.647 33.7754 490.713 33.5106 490.87 33.2992C491.026 33.0879 491.26 32.9473 491.52 32.9085ZM508.087 36.4478C507.827 36.4867 507.562 36.4206 507.351 36.2642C507.139 36.1078 506.999 35.8739 506.96 35.6138C506.921 35.3538 506.987 35.0889 507.143 34.8776C507.3 34.6662 507.534 34.5257 507.794 34.4868L513.677 33.608C513.937 33.5691 514.202 33.6352 514.413 33.7916C514.624 33.948 514.765 34.182 514.804 34.442L515.705 40.476C515.744 40.736 515.678 41.0009 515.522 41.2122C515.365 41.4236 515.131 41.5641 514.871 41.603C514.611 41.6418 514.346 41.5758 514.135 41.4194C513.924 41.263 513.783 41.029 513.744 40.7689L513.196 37.1019L507.115 45.3218C507.038 45.4267 506.94 45.5153 506.829 45.5825C506.717 45.6497 506.593 45.6942 506.464 45.7135C506.335 45.7328 506.203 45.7264 506.077 45.6948C505.95 45.6631 505.831 45.6069 505.727 45.5292L502.016 42.7816L498.437 47.6205C498.28 47.8322 498.046 47.9729 497.786 48.0118C497.525 48.0507 497.26 47.9846 497.049 47.8279C496.837 47.6713 496.696 47.4371 496.657 47.1767C496.619 46.9163 496.685 46.6512 496.841 46.4396L501.011 40.8047C501.089 40.6998 501.186 40.6112 501.298 40.5439C501.41 40.4767 501.534 40.4322 501.663 40.4129C501.791 40.3936 501.923 40.4 502.049 40.4316C502.176 40.4633 502.295 40.5196 502.4 40.5973L506.11 43.3448L511.603 35.9226L508.087 36.4478Z" fill="#6250FE"/>
</g>
<g filter="url(#filter1_d_29_213)">
<rect x="334" y="492.289" width="63.4484" height="63.4484" rx="10.1517" transform="rotate(-2.06709 334 492.289)" fill="white"/>
<path d="M368.268 509.678L368.228 513.682C372.702 514.375 376.113 518.242 376.066 522.907C376.054 524.097 375.805 525.218 375.398 526.258L378.814 528.314C379.57 526.683 380.012 524.863 380.031 522.947C380.099 516.101 374.935 510.405 368.268 509.678ZM366.722 532.066C361.608 532.015 357.512 527.837 357.564 522.722C357.61 518.057 361.098 514.259 365.585 513.656L365.625 509.651C358.931 510.245 353.667 515.823 353.599 522.682C353.526 529.978 359.374 535.957 366.669 536.03C371.044 536.074 374.937 533.985 377.375 530.732L373.96 528.675C373.087 529.749 371.982 530.612 370.729 531.199C369.476 531.786 368.106 532.082 366.722 532.066Z" fill="#6250FE"/>
</g>
<g filter="url(#filter2_d_29_213)">
<rect x="494.756" y="520.571" width="63.4484" height="63.4484" rx="10.1517" transform="rotate(2.87742 494.756 520.571)" fill="white"/>
<path d="M512.382 565.144L536.142 566.337L537.336 542.577L529.415 542.18C528.437 544.221 527.065 545.197 525.298 545.108C523.532 545.019 522.265 543.91 521.495 541.782L513.575 541.384L512.382 565.144Z" stroke="#6250FE" stroke-width="2.75" stroke-linejoin="round"/>
<path d="M518.919 553.563L522.68 557.721L530.998 550.199" stroke="#6250FE" stroke-width="2.75" stroke-linecap="round" stroke-linejoin="round"/>
</g>
<g filter="url(#filter3_d_29_213)">
<rect width="63.4487" height="63.4635" rx="10.1517" transform="matrix(0.988595 0.150596 -0.150525 0.988606 612.553 108.075)" fill="white"/>
<path d="M651.005 131.95L631.406 128.966C630.864 128.883 630.359 129.255 630.277 129.797L629.233 136.658L650.792 139.941L651.836 133.08C651.919 132.538 651.547 132.033 651.005 131.95ZM633.563 134.56C632.886 134.457 632.421 133.825 632.524 133.148C632.627 132.471 633.259 132.006 633.936 132.109C634.613 132.212 635.077 132.844 634.974 133.521C634.871 134.198 634.24 134.663 633.563 134.56ZM626.398 155.282C626.316 155.824 626.687 156.329 627.229 156.412L646.828 159.396C647.37 159.478 647.875 159.107 647.957 158.565L649.002 151.704L627.442 148.421L626.398 155.282ZM630.952 151.713C631.629 151.816 632.094 152.448 631.991 153.125C631.887 153.802 631.256 154.267 630.579 154.164C629.902 154.061 629.438 153.429 629.541 152.752C629.644 152.075 630.275 151.61 630.952 151.713ZM627.741 146.46L649.3 149.743L650.493 141.902L628.934 138.619L627.741 146.46ZM632.444 141.911C633.121 142.014 633.585 142.646 633.482 143.323C633.379 144 632.748 144.465 632.071 144.362C631.394 144.259 630.929 143.627 631.032 142.95C631.135 142.273 631.767 141.808 632.444 141.911Z" fill="#6250FE"/>
</g>
<defs>
<filter id="filter0_d_29_213" x="458.601" y="0.138798" width="90.9247" height="90.9247" filterUnits="userSpaceOnUse" color-interpolation-filters="sRGB">
<feFlood flood-opacity="0" result="BackgroundImageFix"/>
<feColorMatrix in="SourceAlpha" type="matrix" values="0 0 0 0 0 0 0 0 0 0 0 0 0 0 0 0 0 0 127 0" result="hardAlpha"/>
<feOffset dy="2.53793"/>
<feGaussianBlur stdDeviation="5.39311"/>
<feComposite in2="hardAlpha" operator="out"/>
<feColorMatrix type="matrix" values="0 0 0 0 0 0 0 0 0 0 0 0 0 0 0 0 0 0 0.25 0"/>
<feBlend mode="normal" in2="BackgroundImageFix" result="effect1_dropShadow_29_213"/>
<feBlend mode="normal" in="SourceGraphic" in2="effect1_dropShadow_29_213" result="shape"/>
</filter>
<filter id="filter1_d_29_213" x="323.573" y="482.111" width="86.5492" height="86.5491" filterUnits="userSpaceOnUse" color-interpolation-filters="sRGB">
<feFlood flood-opacity="0" result="BackgroundImageFix"/>
<feColorMatrix in="SourceAlpha" type="matrix" values="0 0 0 0 0 0 0 0 0 0 0 0 0 0 0 0 0 0 127 0" result="hardAlpha"/>
<feOffset dy="2.53793"/>
<feGaussianBlur stdDeviation="5.39311"/>
<feComposite in2="hardAlpha" operator="out"/>
<feColorMatrix type="matrix" values="0 0 0 0 0 0 0 0 0 0 0 0 0 0 0 0 0 0 0.25 0"/>
<feBlend mode="normal" in2="BackgroundImageFix" result="effect1_dropShadow_29_213"/>
<feBlend mode="normal" in="SourceGraphic" in2="effect1_dropShadow_29_213" result="shape"/>
</filter>
<filter id="filter2_d_29_213" x="481.282" y="512.819" width="87.1327" height="87.1327" filterUnits="userSpaceOnUse" color-interpolation-filters="sRGB">
<feFlood flood-opacity="0" result="BackgroundImageFix"/>
<feColorMatrix in="SourceAlpha" type="matrix" values="0 0 0 0 0 0 0 0 0 0 0 0 0 0 0 0 0 0 127 0" result="hardAlpha"/>
<feOffset dy="2.53793"/>
<feGaussianBlur stdDeviation="5.39311"/>
<feComposite in2="hardAlpha" operator="out"/>
<feColorMatrix type="matrix" values="0 0 0 0 0 0 0 0 0 0 0 0 0 0 0 0 0 0 0.25 0"/>
<feBlend mode="normal" in2="BackgroundImageFix" result="effect1_dropShadow_29_213"/>
<feBlend mode="normal" in="SourceGraphic" in2="effect1_dropShadow_29_213" result="shape"/>
</filter>
<filter id="filter3_d_29_213" x="593.625" y="101.238" width="91.0284" height="91.0447" filterUnits="userSpaceOnUse" color-interpolation-filters="sRGB">
<feFlood flood-opacity="0" result="BackgroundImageFix"/>
<feColorMatrix in="SourceAlpha" type="matrix" values="0 0 0 0 0 0 0 0 0 0 0 0 0 0 0 0 0 0 127 0" result="hardAlpha"/>
<feOffset dy="2.53793"/>
<feGaussianBlur stdDeviation="5.39311"/>
<feComposite in2="hardAlpha" operator="out"/>
<feColorMatrix type="matrix" values="0 0 0 0 0 0 0 0 0 0 0 0 0 0 0 0 0 0 0.25 0"/>
<feBlend mode="normal" in2="BackgroundImageFix" result="effect1_dropShadow_29_213"/>
<feBlend mode="normal" in="SourceGraphic" in2="effect1_dropShadow_29_213" result="shape"/>
</filter>
<clipPath id="clip0_29_213">
<rect width="613" height="352" fill="white" transform="translate(0 138)"/>
</clipPath>
</defs>
</svg>
