<svg width="344" height="414" viewBox="0 0 344 414" fill="none" xmlns="http://www.w3.org/2000/svg">
<g clip-path="url(#clip0_29_410)">
<path d="M2.45927 198.011C3.72324 200.119 5.43468 201.925 7.47303 203.302C9.51138 204.678 11.8271 205.592 14.257 205.978C16.6869 206.363 19.1719 206.212 21.537 205.535C23.9021 204.857 26.0898 203.67 27.9459 202.057L79.826 231.781L77.8924 200.794L28.9226 177.318C26.0028 174.383 22.1065 172.62 17.9721 172.362C13.8377 172.105 9.75249 173.372 6.49054 175.922C3.22858 178.473 1.01652 182.13 0.273536 186.201C-0.469451 190.272 0.308249 194.474 2.45927 198.011Z" fill="#FFB8B8"/>
<path d="M152.657 317.085C137.268 338.602 137.818 374.601 142.112 414H214.873L218.037 406.626L222.255 414H290.798C290.798 414 285.526 313.925 276.035 310.765C266.545 307.605 152.657 317.085 152.657 317.085Z" fill="#2F2E41"/>
<path d="M214.873 92.278C235.257 92.278 251.781 75.7709 251.781 55.4083C251.781 35.0457 235.257 18.5386 214.873 18.5386C194.49 18.5386 177.965 35.0457 177.965 55.4083C177.965 75.7709 194.49 92.278 214.873 92.278Z" fill="#FFB8B8"/>
<path d="M241.549 101.844L248.767 115.663L298.688 137.894L285.566 264.752L280.043 277.889L283.027 289.297L275.832 297.717C283.054 304.244 283.971 311.077 280.043 318.145L257.054 323.406C257.054 323.406 129.23 334.76 140.003 314.979C151.773 293.364 154.771 229.53 128.786 195.419C106.726 166.46 123.663 128.881 123.663 128.881L175.99 113.26L195.237 101.844L241.549 101.844Z" fill="#3F3D56"/>
<path d="M231.259 1.40003C231.432 1.03344 231.712 0.727017 232.061 0.520095C232.41 0.313174 232.813 0.215204 233.218 0.238774C216.321 -0.770916 198.523 1.19645 184.387 10.4983C180.962 12.7518 177.733 15.4397 174.006 17.0745C173.83 17.1534 173.678 17.2765 173.564 17.4317C173.45 17.5869 173.377 17.769 173.354 17.9602C173.331 18.1515 173.358 18.3454 173.433 18.5232C173.507 18.701 173.626 18.8566 173.778 18.9749L174.187 19.2956C174.349 19.4221 174.472 19.5904 174.545 19.7823C174.617 19.9741 174.636 20.1821 174.598 20.3836C174.56 20.5851 174.468 20.7725 174.331 20.9253C174.194 21.0781 174.018 21.1905 173.822 21.2503C173.617 21.3126 173.435 21.4321 173.296 21.5946C173.157 21.7571 173.067 21.9558 173.038 22.1675C173.008 22.3792 173.04 22.5949 173.129 22.7892C173.218 22.9835 173.36 23.1484 173.54 23.2644L176.677 25.2897C176.835 25.3899 176.965 25.5281 177.056 25.6917C177.146 25.8553 177.194 26.039 177.195 26.2259C177.196 26.4129 177.15 26.5971 177.061 26.7616C176.973 26.9262 176.844 27.0658 176.687 27.1678C176.421 27.3317 176.142 27.473 175.853 27.5903C175.673 27.6578 175.513 27.7706 175.389 27.9177C175.266 28.0648 175.182 28.2413 175.146 28.4301C175.111 28.6189 175.124 28.8138 175.186 28.9958C175.247 29.1778 175.355 29.3409 175.498 29.4694C176.856 30.6774 177.898 32.199 178.533 33.9015C179.578 36.6172 179.766 39.5747 179.943 42.4789C181.023 38.2885 185.601 35.8218 189.926 35.5712C194.25 35.3205 198.468 36.7459 202.676 37.7705C211.843 39.9957 221.363 40.3616 230.673 38.8464C227.512 45.1845 230.178 52.7445 232.862 59.2988L241.549 55.5793C253.48 48.8517 245.169 77.3102 240.709 81.2171C249.816 84.3711 273.653 49.3644 265.984 36.0855C261.995 29.1781 264.827 20.2691 256.985 13.7179C253.141 9.67593 245.467 11.4724 241.549 8.1131C240.007 6.79093 242.358 3.25364 240.238 2.48275C239.534 2.2267 231.375 1.14197 231.259 1.40003Z" fill="#2F2E41"/>
<path d="M168.742 116.829C161.97 146.864 144.6 216.994 126.977 231.661C125.859 232.715 124.519 233.505 123.055 233.974C61.1107 249.049 41.2625 210.595 41.2625 210.595C41.2625 210.595 57.8628 202.514 58.2838 186.718L91.7612 197.095L120.944 131.489L125.239 127.487L125.263 127.463L168.742 116.829Z" fill="#3F3D56"/>
<path d="M300.818 394.195C302.592 392.492 303.97 390.421 304.856 388.128C305.742 385.835 306.113 383.375 305.945 380.923C305.776 378.471 305.072 376.086 303.881 373.935C302.69 371.785 301.041 369.921 299.051 368.476L316.416 311.304L286.621 320.135L274.698 373.072C272.489 376.573 271.643 380.761 272.319 384.844C272.995 388.926 275.146 392.619 278.366 395.223C281.586 397.827 285.649 399.16 289.788 398.971C293.926 398.781 297.85 397.082 300.818 394.195Z" fill="#FFB8B8"/>
<path d="M284.924 134.696L298.688 137.894C298.688 137.894 355.577 248.465 341.868 269.533C328.159 290.602 311.365 360.354 311.365 360.354C311.365 360.354 286.526 355.421 277.035 342.78L294.415 260.053L276.488 190.527L284.924 134.696Z" fill="#3F3D56"/>
<path d="M23.8056 298.89L24.2998 120.809C24.3139 117.204 25.7586 113.753 28.317 111.211C30.8754 108.669 34.3385 107.245 37.9466 107.251L172.577 107.624C176.185 107.638 179.641 109.081 182.185 111.637C184.729 114.193 186.155 117.652 186.149 121.257L185.654 299.338C185.64 302.943 184.196 306.394 181.637 308.936C179.079 311.477 175.616 312.902 172.008 312.896L37.3769 312.523C33.7688 312.509 30.3137 311.065 27.7694 308.51C25.2252 305.954 23.7996 302.494 23.8056 298.89Z" fill="#E6E6E6"/>
<path d="M34.2819 245.131L34.5996 130.644C34.6127 127.268 35.9657 124.036 38.3617 121.655C40.7578 119.275 44.0011 117.941 47.3803 117.947L163.084 118.267C166.463 118.28 169.699 119.632 172.082 122.026C174.465 124.419 175.8 127.659 175.795 131.035L175.355 289.503C175.342 292.879 173.988 296.111 171.592 298.492C169.196 300.872 165.953 302.205 162.574 302.2L90.8975 302.001C75.8457 301.943 61.4318 295.922 50.8179 285.261C40.2041 274.599 34.2572 260.167 34.2819 245.131Z" fill="white"/>
<path d="M149.826 168.236H59.607C58.1714 168.236 56.7945 167.667 55.7794 166.652C54.7642 165.638 54.1939 164.263 54.1939 162.829C54.1939 161.395 54.7642 160.019 55.7794 159.005C56.7945 157.991 58.1714 157.421 59.607 157.421H149.826C151.262 157.421 152.639 157.991 153.654 159.005C154.669 160.019 155.239 161.395 155.239 162.829C155.239 164.263 154.669 165.638 153.654 166.652C152.639 167.667 151.262 168.236 149.826 168.236Z" fill="#6C63FF"/>
<path d="M79.4553 143.302H59.607C58.1714 143.302 56.7945 142.732 55.7794 141.718C54.7642 140.704 54.1939 139.328 54.1939 137.894C54.1939 136.46 54.7642 135.084 55.7794 134.07C56.7945 133.056 58.1714 132.486 59.607 132.486H79.4553C80.8909 132.486 82.2678 133.056 83.2829 134.07C84.2981 135.084 84.8684 136.46 84.8684 137.894C84.8684 139.328 84.2981 140.704 83.2829 141.718C82.2678 142.732 80.8909 143.302 79.4553 143.302Z" fill="#6C63FF"/>
<path d="M149.826 193.171H59.607C58.1714 193.171 56.7945 192.601 55.7794 191.587C54.7642 190.573 54.1939 189.198 54.1939 187.763C54.1939 186.329 54.7642 184.954 55.7794 183.94C56.7945 182.926 58.1714 182.356 59.607 182.356H149.826C151.262 182.356 152.639 182.926 153.654 183.94C154.669 184.954 155.239 186.329 155.239 187.763C155.239 189.198 154.669 190.573 153.654 191.587C152.639 192.601 151.262 193.171 149.826 193.171Z" fill="#6C63FF"/>
<path d="M149.826 218.106H59.607C58.1714 218.106 56.7945 217.536 55.7794 216.522C54.7642 215.508 54.1939 214.132 54.1939 212.698C54.1939 211.264 54.7642 209.889 55.7794 208.875C56.7945 207.86 58.1714 207.291 59.607 207.291H149.826C151.262 207.291 152.639 207.86 153.654 208.875C154.669 209.889 155.239 211.264 155.239 212.698C155.239 214.132 154.669 215.508 153.654 216.522C152.639 217.536 151.262 218.106 149.826 218.106Z" fill="#6C63FF"/>
<path d="M142.526 283.808C154.422 283.808 164.065 274.175 164.065 262.291C164.065 250.408 154.422 240.775 142.526 240.775C130.631 240.775 120.987 250.408 120.987 262.291C120.987 274.175 130.631 283.808 142.526 283.808Z" fill="#6C63FF"/>
<path d="M139.588 273.49C139.216 273.49 138.849 273.403 138.516 273.237C138.184 273.071 137.894 272.829 137.671 272.532L131.795 264.705C131.606 264.454 131.468 264.168 131.39 263.863C131.311 263.558 131.294 263.241 131.338 262.93C131.383 262.618 131.488 262.319 131.648 262.048C131.809 261.777 132.021 261.541 132.273 261.352C132.525 261.163 132.811 261.026 133.116 260.948C133.421 260.87 133.739 260.853 134.051 260.898C134.362 260.942 134.662 261.048 134.933 261.209C135.204 261.369 135.44 261.581 135.629 261.833L139.473 266.953L149.347 252.158C149.521 251.896 149.745 251.67 150.007 251.494C150.268 251.318 150.562 251.196 150.871 251.133C151.18 251.071 151.498 251.07 151.808 251.131C152.117 251.192 152.411 251.314 152.674 251.488C152.936 251.663 153.161 251.888 153.336 252.149C153.512 252.411 153.633 252.705 153.695 253.014C153.756 253.323 153.756 253.641 153.694 253.95C153.632 254.259 153.51 254.552 153.334 254.814L141.582 272.424C141.369 272.742 141.083 273.005 140.748 273.191C140.413 273.376 140.038 273.478 139.655 273.489C139.632 273.489 139.61 273.49 139.588 273.49Z" fill="white"/>
<path d="M96.5969 65.7935C102.244 65.7935 106.822 61.2204 106.822 55.5792C106.822 49.9381 102.244 45.365 96.5969 45.365C90.9499 45.365 86.3721 49.9381 86.3721 55.5792C86.3721 61.2204 90.9499 65.7935 96.5969 65.7935Z" fill="#F2F2F2"/>
<path d="M59.3063 359.603C64.9533 359.603 69.5312 355.03 69.5312 349.389C69.5312 343.748 64.9533 339.175 59.3063 339.175C53.6593 339.175 49.0815 343.748 49.0815 349.389C49.0815 355.03 53.6593 359.603 59.3063 359.603Z" fill="#F2F2F2"/>
<path d="M294.478 105.449C300.125 105.449 304.703 100.876 304.703 95.2345C304.703 89.5933 300.125 85.0203 294.478 85.0203C288.831 85.0203 284.253 89.5933 284.253 95.2345C284.253 100.876 288.831 105.449 294.478 105.449Z" fill="#F2F2F2"/>
</g>
<defs>
<clipPath id="clip0_29_410">
<rect width="344" height="414" fill="white"/>
</clipPath>
</defs>
</svg>
